# xmcd
#
# Track frame offsets: 
#        150
#        10476
#        41978
#        59880
#        75770
#        93736
#        115775
#        140697
#        168752
#        198117
#        222129
#        245983
#        268493
#
# Disc length: 3842 seconds
#
# Revision: 4
# Processed by: cddbd v1.5.2PL0 Copyright (c) Steve Scherf et al.
# Submitted via: ExactAudioCopyFreeDBPlugin 1.0
#
DISCID=c30f000d
DTITLE=Various Artist - Audiophile Jazz
DYEAR=2003
DGENRE=Jazz
TTITLE0=Eddie Layman - Drums Demonstration
TTITLE1=Olive - Just The Two Of Us
TTITLE2=Peppi Kamadhatu - That's What Friends Are For
TTITLE3=Eden Atwood - Mas Que Nada
TTITLE4=Jeremy Monteiro and Friends - Take Five
TTITLE5=Eden Atwood - Desafinando
TTITLE6=Mei Sheum and Friends - Come With Me
TTITLE7=Peppi Kamadhatu - Antonio's Song
TTITLE8=Jeremy Monteiro and Friends - Blue Bossa
TTITLE9=Vanessa Rubin - My One And Only Love
TTITLE10=Mei Sheum and Friends - Imagine
TTITLE11=Mei Sheum and Friends - Beautiful Love
TTITLE12=Oele Pattiselano and Friends - Sometime When We Touch
EXTD=YEAR: 2003
EXTT0=
EXTT1=
EXTT2=
EXTT3=
EXTT4=
EXTT5=
EXTT6=
EXTT7=
EXTT8=
EXTT9=
EXTT10=
EXTT11=
EXTT12=
PLAYORDER=
